# xmcd CD database file
#
# Track frame offsets:
#	150
#	38721
#	66702
#	93418
#	121676
#	140013
#
# Disc length: 2507 seconds
#
# Revision: 0
# Processed by: cddbd v1.5.2PL0 Copyright (c) Steve Scherf et al.
# Submitted via: CDex 2.18
#
DISCID=5309c906
DTITLE=Harald Lassen - Rainbow Session
DYEAR=2016
DGENRE=Jazz
TTITLE0=Life So Far (Hasn't Been That Bad)
TTITLE1=Gayspectations
TTITLE2=Okay, I'm Harald
TTITLE3=13.03.1987
TTITLE4=Etter Storm Kommer Sol - Og Kudos
TTITLE5=Your Impression
EXTD=YEAR: 2016
EXTT0=
EXTT1=
EXTT2=
EXTT3=
EXTT4=
EXTT5=
PLAYORDER=
